<svg xmlns="http://www.w3.org/2000/svg" xmlns:xlink="http://www.w3.org/1999/xlink" width="400" height="400" viewBox="0 0 400 400"><g data-name="icon" fill="#ffffff" data="id:7657355" transform="translate(25.699994473046544, 25.70043330483974) scale(3.4859733816934835)">
  
 <path d="m47.434 41.383h5.3789l-0.085938-3.3555h-5.1758z" fill="#000000"/>
 <path d="m47.238 46.875h5.7227l-0.09375-3.5391h-5.5039z" fill="#000000"/>
 <path d="m47.621 36.074h5.0508l-0.089844-3.3516h-4.8398z" fill="#000000"/>
 <path d="m48.129 21.875-0.12891 3.5898h4.3906l-0.097656-3.5898z" fill="#000000"/>
 <path d="m47.812 30.77h4.7188l-0.089844-3.3516h-4.5117z" fill="#000000"/>
 <path d="m47.043 52.367h6.0625l-0.09375-3.5391h-5.8438z" fill="#000000"/>
 <path d="m50.703 95.898c6.6992-0.33984 12.777-4.1016 15.867-9.8281 2.375-4.4023 2.4766-9.0664 0.27734-12.801-4.0234-6.832-3.9531-8.4023-3.4414-11.035l0.003906 0.003906c0.33594-1.543 0.42578-3.1289 0.27344-4.6953-0.32031-3.9141-1.5625-6.7812-3.6875-8.5234-1.8281-1.4961-3.918-1.8047-5.0742-1.8516l0.30859 11.574c0.011719 0.44141-0.16016 0.87109-0.46875 1.1875-0.30859 0.31641-0.73438 0.49609-1.1758 0.49609h-7.0781c-0.44922 0-0.87891-0.18359-1.1914-0.50781-0.30859-0.32422-0.47266-0.76172-0.45312-1.2109l0.41016-11.484c-1.1992 0.035156-3.4141 0.33984-5.3164 1.8945-2.125 1.7344-3.3594 4.5703-3.6758 8.4297l-0.003906-0.003906c-0.15625 1.5703-0.0625 3.1562 0.27344 4.6953 0.51172 2.6328 0.57812 4.1992-3.4414 11.035-2.2031 3.7461-2.0273 8.6133 0.47656 13.02 3.332 5.875 9.8945 9.5547 17.117 9.6055zm3.2422-9.75h-8.1328c-1.7031 0-3.0859-1.3789-3.0859-3.0859 0-1.7031 1.3828-3.0859 3.0859-3.0859h8.1328c1.7031 0 3.0859 1.3828 3.0859 3.0859 0 1.707-1.3828 3.0859-3.0859 3.0859zm-3.8555-23.887c3.0703 0 5.8359 1.8477 7.0117 4.6797 1.1758 2.8359 0.52734 6.1016-1.6406 8.2695-2.1719 2.1719-5.4336 2.8203-8.2695 1.6484-2.8359-1.1758-4.6836-3.9414-4.6836-7.0117 0.003907-4.1875 3.3945-7.582 7.582-7.5859z" fill="#000000"/>
 <path d="m55.719 69.84c0.007812 3.1133-2.5117 5.6367-5.6211 5.6406-3.1094 0.003906-5.6328-2.5117-5.6367-5.625-0.003907-3.1094 2.5117-5.6367 5.6211-5.6406s5.6328 2.5156 5.6367 5.625" fill="#000000"/>
 <path d="m53.945 81.934h-8.1328c-0.625 0-1.1328 0.50391-1.1328 1.1328 0 0.625 0.50781 1.1328 1.1328 1.1328h8.1328c0.625 0 1.1328-0.50781 1.1328-1.1328 0-0.62891-0.50781-1.1328-1.1328-1.1328z" fill="#000000"/>
 <path d="m46.824 58.473h6.4453l-0.10938-4.1523h-6.1875z" fill="#000000"/>
 <path d="m42.781 16.102c0 0.25781 0.10156 0.50781 0.28516 0.69141 0.18359 0.17969 0.43359 0.28516 0.69141 0.28516h3.8203l0.46094 2.8438h4.3633l0.58594-2.8438h4.1133c0.53906 0 0.97656-0.4375 0.97656-0.97656 0-0.53906-0.4375-0.97656-0.97656-0.97656h-3.7109l0.79688-3.8672h0.011719 2.9023c0.53906 0 0.97656-0.4375 0.97656-0.97656s-0.4375-0.97656-0.97656-0.97656h-2.5117l0.28906-1.3984c0.015625-0.47266-0.074218-2.6758-0.18359-3.8047h-8.4141c-0.10938 1.1406-0.19922 3.375-0.1875 3.8164l0.22656 1.3867h-2.5625c-0.53906 0-0.97656 0.4375-0.97656 0.97656s0.4375 0.97656 0.97656 0.97656h2.8789l0.625 3.8672h-3.5039c-0.25781 0-0.50781 0.10156-0.69141 0.28516s-0.28516 0.42969-0.28516 0.69141zm6.5977-6.4375c0-0.53906 0.4375-0.97656 0.97656-0.97656 0.53906 0 0.97656 0.4375 0.97656 0.97656v5.793c0 0.53906-0.4375 0.97656-0.97656 0.97656-0.53906 0-0.97656-0.4375-0.97656-0.97656z" fill="#000000"/>

  </g></svg>